<svg width="83" height="64" viewBox="0 0 83 64" fill="none" xmlns="http://www.w3.org/2000/svg">
<path d="M33.1958 41.1675C33.0094 39.1097 33.0809 37.6736 33.0809 35.7933C34.0127 35.3044 35.6824 32.1871 35.9645 29.5537C36.6973 29.4937 37.8525 28.7788 38.1908 25.9564C38.3733 24.4412 37.6483 23.5885 37.2066 23.3204C38.3989 19.7347 40.8753 8.64172 32.6264 7.4954C31.7775 6.00442 29.6036 5.25 26.7787 5.25C15.4764 5.45807 14.113 13.7848 16.5908 23.3204C16.1504 23.5885 15.4253 24.4412 15.6066 25.9564C15.9461 28.7788 17.1001 29.4937 17.8328 29.5537C18.1137 32.1859 19.8497 35.3044 20.7841 35.7933C20.7841 37.6736 20.8543 39.1097 20.668 41.1675C18.4315 47.1799 3.34176 45.4923 2.64478 57.0882H51.1526C50.4569 45.4923 35.4322 47.1799 33.1958 41.1675Z" fill="#BBCEE3"/>
<rect x="32.1385" y="18.0095" width="48.6049" height="42.3123" rx="6.07561" fill="white" stroke="#BBCEE3" stroke-width="1.73589"/>
<rect x="40.2186" y="25.7149" width="7.55665" height="2.33013" rx="0.654073" transform="rotate(42.9065 40.2186 25.7149)" fill="#023F85"/>
<rect x="51.1528" y="25.0499" width="10.2614" height="2.33013" rx="0.654073" transform="rotate(132.907 51.1528 25.0499)" fill="#023F85"/>
<rect x="40.2186" y="35.8057" width="7.55665" height="2.33013" rx="0.654073" transform="rotate(42.9065 40.2186 35.8057)" fill="#023F85"/>
<rect x="40.2186" y="45.8975" width="7.55665" height="2.33013" rx="0.654073" transform="rotate(42.9065 40.2186 45.8975)" fill="#023F85"/>
<rect x="51.1528" y="35.1417" width="10.2614" height="2.33013" rx="0.654073" transform="rotate(132.907 51.1528 35.1417)" fill="#023F85"/>
<rect x="51.1528" y="45.2334" width="10.2614" height="2.33013" rx="0.654073" transform="rotate(132.907 51.1528 45.2334)" fill="#023F85"/>
<rect x="54.5234" y="29.0145" width="20.6137" height="3.0378" rx="1.5189" fill="#BBCEE3"/>
<rect x="54.5234" y="37.9807" width="20.6137" height="3.0378" rx="1.5189" fill="#BBCEE3"/>
<rect x="54.5234" y="46.9468" width="20.6137" height="3.0378" rx="1.5189" fill="#BBCEE3"/>
</svg>
