<svg width="83" height="64" viewBox="0 0 83 64" fill="none" xmlns="http://www.w3.org/2000/svg">
<path d="M38.9909 42.4323C38.7964 40.2852 38.871 38.7868 38.871 36.8249C39.8433 36.3148 41.5855 33.0622 41.8799 30.3144C42.6444 30.2518 43.8498 29.506 44.2027 26.5611C44.3932 24.9801 43.6367 24.0903 43.1758 23.8106C44.4198 20.0693 47.0038 8.4948 38.3969 7.29873C37.5111 5.74304 35.2429 4.95587 32.2953 4.95587C20.5024 5.17298 19.0799 13.8611 21.6652 23.8106C21.2057 24.0903 20.4491 24.9801 20.6383 26.5611C20.9926 29.506 22.1966 30.2518 22.9612 30.3144C23.2542 33.0609 25.0656 36.3148 26.0406 36.8249C26.0406 38.7868 26.1138 40.2852 25.9194 42.4323C23.5858 48.7057 7.84112 46.9449 7.11389 59.0441H57.7271C57.0012 46.9449 41.3244 48.7057 38.9909 42.4323Z" fill="#BBCEE3"/>
<g clip-path="url(#clip0_105_647)">
<circle cx="53.0462" cy="36.5853" r="13.3989" fill="white"/>
<path d="M65.4139 46.2277L72.8488 53.6607L70.3925 56.117L62.9594 48.6822C60.1937 50.8993 56.7536 52.1052 53.2089 52.1002C44.585 52.1002 37.5859 45.1011 37.5859 36.4772C37.5859 27.8533 44.585 20.8542 53.2089 20.8542C61.8328 20.8542 68.8319 27.8533 68.8319 36.4772C68.837 40.0219 67.6311 43.4619 65.4139 46.2277ZM61.9318 44.9396C64.1348 42.6741 65.3651 39.6372 65.3601 36.4772C65.3601 29.7628 59.9216 24.326 53.2089 24.326C46.4945 24.326 41.0577 29.7628 41.0577 36.4772C41.0577 43.1899 46.4945 48.6284 53.2089 48.6284C56.369 48.6334 59.4058 47.403 61.6714 45.2L61.9318 44.9396ZM55.2538 29.8391C54.7419 30.0704 54.2938 30.4223 53.9479 30.8648C53.6019 31.3073 53.3685 31.8271 53.2677 32.3796C53.1668 32.9322 53.2015 33.5009 53.3688 34.0371C53.5361 34.5733 53.8309 35.0609 54.2281 35.458C54.6252 35.8552 55.1128 36.15 55.649 36.3173C56.1852 36.4846 56.7539 36.5193 57.3065 36.4184C57.859 36.3176 58.3788 36.0842 58.8213 35.7382C59.2638 35.3923 59.6157 34.9442 59.847 34.4323C60.3031 35.9141 60.2503 37.5059 59.6968 38.9542C59.1433 40.4025 58.121 41.6238 56.7928 42.4236C55.4646 43.2234 53.9069 43.5557 52.3679 43.3675C50.829 43.1793 49.3973 42.4815 48.3009 41.3852C47.2046 40.2888 46.5068 38.8571 46.3186 37.3182C46.1304 35.7792 46.4627 34.2215 47.2625 32.8933C48.0623 31.5651 49.2836 30.5428 50.7319 29.9893C52.1802 29.4358 53.772 29.383 55.2538 29.8391Z" fill="#023F85"/>
</g>
<defs>
<clipPath id="clip0_105_647">
<rect width="41.6613" height="41.6613" fill="white" transform="translate(34.114 17.3824)"/>
</clipPath>
</defs>
</svg>
