<svg width="80" height="80" viewBox="0 0 80 80" fill="none" xmlns="http://www.w3.org/2000/svg">
<circle cx="40" cy="40" r="39.1321" stroke="#BBCEE3" stroke-width="1.73589"/>
<circle cx="40" cy="40" r="26.1272" fill="#BBCEE3"/>
<path d="M52.2995 52.0232H27.9314C26.6814 52.0232 25.6646 51.0063 25.6646 49.7564V35.0222C25.6646 33.7723 26.6814 32.7554 27.9314 32.7554H32.8941C33.4996 32.7554 34.0688 32.9912 34.497 33.4193L35.7679 34.6902C35.8729 34.7958 35.9978 34.8795 36.1354 34.9365C36.273 34.9935 36.4205 35.0226 36.5694 35.0222H52.2995C53.5494 35.0222 54.5663 36.0391 54.5663 37.289V49.7564C54.5663 51.0063 53.5494 52.0232 52.2995 52.0232ZM27.9314 33.8888C27.3064 33.8888 26.798 34.3972 26.798 35.0222V49.7564C26.798 50.3813 27.3064 50.8898 27.9314 50.8898H52.2995C52.9244 50.8898 53.4329 50.3813 53.4329 49.7564V37.289C53.4329 36.664 52.9244 36.1556 52.2995 36.1556H36.5694C35.9639 36.1556 35.3947 35.9198 34.9665 35.4916L33.6956 34.2207C33.5906 34.1152 33.4657 34.0314 33.3281 33.9745C33.1905 33.9175 33.043 33.8884 32.8941 33.8888H27.9314Z" fill="#023F85"/>
<path d="M53.9997 38.4223C53.6867 38.4223 53.433 38.1686 53.433 37.8556V32.7553C53.433 32.1304 52.9245 31.6219 52.2996 31.6219H50.0328C49.7198 31.6219 49.4661 31.3682 49.4661 31.0552C49.4661 30.7423 49.7198 30.4885 50.0328 30.4885H52.2996C53.5495 30.4885 54.5664 31.5054 54.5664 32.7553V37.8556C54.5664 38.1686 54.3126 38.4223 53.9997 38.4223Z" fill="#023F85"/>
<path d="M50.0328 35.589C49.7199 35.589 49.4661 35.3352 49.4661 35.0223V25.3884C49.4661 24.7634 48.9577 24.255 48.3327 24.255H31.8984C31.2734 24.255 30.765 24.7634 30.765 25.3884V33.3222C30.765 33.6351 30.5112 33.8889 30.1983 33.8889C29.8854 33.8889 29.6316 33.6351 29.6316 33.3222V25.3884C29.6316 24.1385 30.6485 23.1216 31.8984 23.1216H48.3327C49.5826 23.1216 50.5995 24.1385 50.5995 25.3884V35.0223C50.5995 35.3352 50.3457 35.589 50.0328 35.589Z" fill="#023F85"/>
<path d="M47.1992 27.0885H33.0317C32.7187 27.0885 32.465 26.8347 32.465 26.5218C32.465 26.2088 32.7187 25.9551 33.0317 25.9551H47.1992C47.5121 25.9551 47.7659 26.2088 47.7659 26.5218C47.7659 26.8347 47.5121 27.0885 47.1992 27.0885ZM47.1992 29.922H33.0317C32.7187 29.922 32.465 29.6682 32.465 29.3553C32.465 29.0423 32.7187 28.7886 33.0317 28.7886H47.1992C47.5121 28.7886 47.7659 29.0423 47.7659 29.3553C47.7659 29.6682 47.5121 29.922 47.1992 29.922ZM47.1992 32.7555H36.4319C36.1189 32.7555 35.8652 32.5017 35.8652 32.1888C35.8652 31.8759 36.1189 31.6221 36.4319 31.6221H47.1992C47.5121 31.6221 47.7659 31.8759 47.7659 32.1888C47.7659 32.5017 47.5121 32.7555 47.1992 32.7555Z" fill="#023F85"/>
<path d="M40.1154 49.7565C36.6782 49.7565 33.8817 46.96 33.8817 43.5228C33.8817 40.0855 36.6782 37.2891 40.1154 37.2891C43.5527 37.2891 46.3491 40.0855 46.3491 43.5228C46.3491 46.96 43.5527 49.7565 40.1154 49.7565ZM40.1154 38.4225C37.3031 38.4225 35.0151 40.7105 35.0151 43.5228C35.0151 46.3351 37.3031 48.6231 40.1154 48.6231C42.9277 48.6231 45.2157 46.3351 45.2157 43.5228C45.2157 40.7105 42.9277 38.4225 40.1154 38.4225Z" fill="#3A96FD"/>
<path d="M51.7328 47.4896H47.7659C47.453 47.4896 47.1992 47.2358 47.1992 46.9229C47.1992 46.61 47.453 46.3562 47.7659 46.3562H51.7328C52.0458 46.3562 52.2995 46.61 52.2995 46.9229C52.2995 47.2358 52.0458 47.4896 51.7328 47.4896ZM49.466 49.7564H47.7659C47.453 49.7564 47.1992 49.5026 47.1992 49.1897C47.1992 48.8768 47.453 48.623 47.7659 48.623H49.466C49.779 48.623 50.0327 48.8768 50.0327 49.1897C50.0327 49.5026 49.779 49.7564 49.466 49.7564Z" fill="#023F85"/>
<path d="M41.2489 47.4897H38.9821C38.6691 47.4897 38.4154 47.2359 38.4154 46.923V45.2229H36.7153C36.4023 45.2229 36.1486 44.9691 36.1486 44.6562V42.3894C36.1486 42.0765 36.4023 41.8227 36.7153 41.8227H38.4154V40.1226C38.4154 39.8097 38.6691 39.5559 38.9821 39.5559H41.2489C41.5618 39.5559 41.8156 39.8097 41.8156 40.1226V41.8227H43.5157C43.8286 41.8227 44.0824 42.0765 44.0824 42.3894V44.6562C44.0824 44.9691 43.8286 45.2229 43.5157 45.2229H41.8156V46.923C41.8156 47.2359 41.5618 47.4897 41.2489 47.4897ZM39.5488 46.3563H40.6822V44.6562C40.6822 44.3433 40.9359 44.0895 41.2489 44.0895H42.949V42.9561H41.2489C40.9359 42.9561 40.6822 42.7023 40.6822 42.3894V40.6893H39.5488V42.3894C39.5488 42.7023 39.295 42.9561 38.9821 42.9561H37.282V44.0895H38.9821C39.295 44.0895 39.5488 44.3433 39.5488 44.6562V46.3563Z" fill="#3A96FD"/>
</svg>
