<svg width="80" height="80" viewBox="0 0 80 80" fill="none" xmlns="http://www.w3.org/2000/svg">
<circle cx="40" cy="40" r="39.1321" stroke="#BBCEE3" stroke-width="1.73589"/>
<circle cx="40" cy="40" r="26.1272" fill="#BBCEE3"/>
<path d="M39.9593 44.9644C36.1253 44.9644 33.0093 41.863 33.0093 38.0143V33.712C33.0093 33.3465 33.3057 33.05 33.6712 33.05H46.2474C46.6129 33.05 46.9093 33.3465 46.9093 33.712V38.5141C46.9093 41.792 43.8625 44.9644 39.9593 44.9644ZM34.3331 34.3739V38.0143C34.3331 41.1181 36.8435 43.6406 39.9593 43.6406C42.9564 43.6406 45.5855 41.245 45.5855 38.5141V34.3739H34.3331Z" fill="#023F85"/>
<path d="M52.2045 56.8787H27.7139C27.3484 56.8787 27.052 56.5823 27.052 56.2168V51.0891C27.052 48.7765 28.7806 46.802 31.073 46.4964L36.9806 45.7087V43.8617C36.9806 43.4962 37.277 43.1998 37.6425 43.1998C38.008 43.1998 38.3044 43.4962 38.3044 43.8617V46.2882C38.3044 46.4486 38.2462 46.6036 38.1405 46.7242C38.0348 46.8449 37.8889 46.9231 37.7299 46.9443L31.2479 47.8086C29.6105 48.027 28.3758 49.4372 28.3758 51.0891V55.5549H51.5425V51.0891C51.5425 49.4372 50.3078 48.0269 48.6704 47.8086L42.1884 46.9442C42.0294 46.9231 41.8835 46.8449 41.7778 46.7242C41.6722 46.6035 41.6139 46.4486 41.6139 46.2882V43.8617C41.6139 43.4962 41.9104 43.1998 42.2759 43.1998C42.6414 43.1998 42.9378 43.4962 42.9378 43.8617V45.7087L48.8453 46.4964C51.1377 46.8021 52.8664 48.7765 52.8664 51.0891V56.2168C52.8664 56.5823 52.57 56.8787 52.2045 56.8787ZM39.9592 40.993C38.973 40.993 38.3318 40.4072 38.1588 40.2277C37.9052 39.9646 37.9128 39.5455 38.1761 39.2918C38.4392 39.0382 38.8582 39.0457 39.112 39.3091C39.1699 39.3692 39.4831 39.6691 39.9592 39.6691C40.0428 39.6691 40.4761 39.6517 40.8066 39.309C41.0602 39.0459 41.4793 39.0382 41.7425 39.2919C42.0057 39.5456 42.0133 39.9646 41.7596 40.2278C41.0751 40.9378 40.2085 40.993 39.9592 40.993Z" fill="#023F85"/>
<path d="M39.9592 50.9877C39.8427 50.9877 39.7283 50.957 39.6275 50.8986C39.5267 50.8403 39.4431 50.7563 39.3851 50.6553L37.0684 46.6176C36.8865 46.3006 36.9961 45.8961 37.3131 45.7141C37.6302 45.5322 38.0347 45.6418 38.2166 45.9588L39.9592 48.9958L41.7018 45.9588C41.8837 45.6417 42.2881 45.5321 42.6053 45.7141C42.9223 45.896 43.0319 46.3005 42.85 46.6176L40.5333 50.6552C40.4753 50.7563 40.3917 50.8402 40.2909 50.8986C40.1901 50.957 40.0757 50.9878 39.9592 50.9877ZM34.7041 42.3428C33.342 42.0025 32.0463 41.5406 30.7429 40.9306C30.6289 40.8772 30.5325 40.7925 30.465 40.6863C30.3975 40.5801 30.3616 40.4569 30.3616 40.331V34.0429C30.3616 31.1836 31.6232 28.4937 33.8229 26.6629C34.1039 26.4291 34.5213 26.4674 34.7551 26.7483C34.9889 27.0292 34.9507 27.4466 34.6698 27.6805C32.7732 29.2589 31.6854 31.578 31.6854 34.0429V39.9056C32.7827 40.3939 33.8792 40.7721 35.025 41.0584C35.3796 41.147 35.5953 41.5063 35.5067 41.861C35.418 42.216 35.0584 42.4312 34.7041 42.3428ZM44.5329 41.8146C44.4428 41.4603 44.657 41.1001 45.0114 41.0101C46.132 40.7252 47.2137 40.354 48.2331 39.9046V34.0429C48.2331 31.4725 47.0703 29.1916 45.2494 27.6811C44.9682 27.4476 44.9293 27.0303 45.1628 26.749C45.3963 26.4677 45.8135 26.4288 46.0949 26.6623C48.2581 28.4578 49.5569 31.1232 49.5569 34.0429V40.331C49.5569 40.457 49.521 40.5803 49.4534 40.6865C49.3857 40.7927 49.2892 40.8774 49.1751 40.9307C47.9705 41.4937 46.6794 41.9521 45.3375 42.2931C45.2532 42.3145 45.1656 42.3191 45.0796 42.3067C44.9935 42.2942 44.9108 42.265 44.8361 42.2205C44.7614 42.1761 44.6962 42.1174 44.6441 42.0477C44.5921 41.9781 44.5543 41.8989 44.5329 41.8146Z" fill="#023F85"/>
<path d="M43.5092 31.7264H36.4093C35.3325 31.7264 34.4173 30.9922 34.1837 29.941L33.2849 25.896C32.9681 24.4709 34.0532 23.1216 35.5105 23.1216H44.4081C45.868 23.1216 46.9498 24.4735 46.6337 25.896L45.7348 29.941C45.5013 30.9922 44.586 31.7264 43.5092 31.7264ZM35.5105 24.4454C34.8993 24.4454 34.4444 25.0112 34.5771 25.6089L35.476 29.6539C35.5739 30.0946 35.9577 30.4026 36.4093 30.4026H43.5092C43.9608 30.4026 44.3445 30.0947 44.4426 29.6539L45.3414 25.6089C45.4739 25.0123 45.0203 24.4454 44.4081 24.4454H35.5105ZM48.2331 51.5836H45.5855C45.22 51.5836 44.9236 51.2872 44.9236 50.9217C44.9236 50.5562 45.22 50.2598 45.5855 50.2598H48.2331C48.5986 50.2598 48.895 50.5562 48.895 50.9217C48.895 51.2872 48.5986 51.5836 48.2331 51.5836Z" fill="#3A96FD"/>
<path d="M43.7321 37.0875H42.9378C42.5723 37.0875 42.2759 36.7911 42.2759 36.4256C42.2759 36.0601 42.5723 35.7637 42.9378 35.7637H43.7321C44.0976 35.7637 44.394 36.0601 44.394 36.4256C44.394 36.7911 44.0976 37.0875 43.7321 37.0875ZM37.1131 37.0875H36.3188C35.9533 37.0875 35.6569 36.7911 35.6569 36.4256C35.6569 36.0601 35.9533 35.7637 36.3188 35.7637H37.1131C37.4786 35.7637 37.775 36.0601 37.775 36.4256C37.775 36.7911 37.4786 37.0875 37.1131 37.0875Z" fill="#023F85"/>
<path d="M39.9593 29.0786C39.5938 29.0786 39.2974 28.7822 39.2974 28.4167V26.4309C39.2974 26.0654 39.5938 25.769 39.9593 25.769C40.3248 25.769 40.6212 26.0654 40.6212 26.4309V28.4167C40.6212 28.7822 40.3248 29.0786 39.9593 29.0786Z" fill="#3A96FD"/>
<path d="M40.9521 28.0858H38.9664C38.6008 28.0858 38.3044 27.7894 38.3044 27.4239C38.3044 27.0584 38.6008 26.762 38.9664 26.762H40.9521C41.3176 26.762 41.614 27.0584 41.614 27.4239C41.614 27.7894 41.3176 28.0858 40.9521 28.0858Z" fill="#3A96FD"/>
</svg>
