<svg width="80" height="80" viewBox="0 0 80 80" fill="none" xmlns="http://www.w3.org/2000/svg">
<circle cx="40" cy="40" r="39.1321" stroke="#BBCEE3" stroke-width="1.73589"/>
<circle cx="40.0005" cy="40.0007" r="26.1272" fill="#BBCEE3"/>
<path d="M30.3747 44.3063C28.9148 44.3063 27.7271 43.1186 27.7271 41.6586V35.7013C27.7271 35.3358 28.0235 35.0394 28.389 35.0394C28.7545 35.0394 29.0509 35.3358 29.0509 35.7013V41.6586C29.0509 42.3886 29.6448 42.9825 30.3747 42.9825C31.1047 42.9825 31.6986 42.3886 31.6986 41.6586V35.7013C31.6986 35.3358 31.995 35.0394 32.3605 35.0394C32.726 35.0394 33.0224 35.3358 33.0224 35.7013V41.6586C33.0224 43.1186 31.8347 44.3063 30.3747 44.3063ZM39.9726 44.3063C38.5127 44.3063 37.3249 43.1186 37.3249 41.6586V35.7013C37.3249 35.3358 37.6213 35.0394 37.9869 35.0394C38.3524 35.0394 38.6488 35.3358 38.6488 35.7013V41.6586C38.6488 42.3886 39.2427 42.9825 39.9726 42.9825C40.7026 42.9825 41.2965 42.3886 41.2965 41.6586V35.7013C41.2965 35.3358 41.5929 35.0394 41.9584 35.0394C42.3239 35.0394 42.6203 35.3358 42.6203 35.7013V41.6586C42.6203 43.1186 41.4326 44.3063 39.9726 44.3063ZM49.5705 44.3063C48.1106 44.3063 46.9228 43.1186 46.9228 41.6586V35.7013C46.9228 35.3358 47.2192 35.0394 47.5847 35.0394C47.9502 35.0394 48.2467 35.3358 48.2467 35.7013V41.6586C48.2467 42.3886 48.8405 42.9825 49.5705 42.9825C50.3005 42.9825 50.8943 42.3886 50.8943 41.6586V35.7013C50.8943 35.3358 51.1908 35.0394 51.5563 35.0394C51.9218 35.0394 52.2182 35.3358 52.2182 35.7013V41.6586C52.2182 43.1186 51.0304 44.3063 49.5705 44.3063ZM32.3605 33.0536C31.995 33.0536 31.6986 32.7572 31.6986 32.3917V29.744H29.0509V32.3917C29.0509 32.7572 28.7545 33.0536 28.389 33.0536C28.0235 33.0536 27.7271 32.7572 27.7271 32.3917V29.0821C27.7271 28.7166 28.0235 28.4202 28.389 28.4202H32.3605C32.726 28.4202 33.0224 28.7166 33.0224 29.0821V32.3917C33.0224 32.7572 32.726 33.0536 32.3605 33.0536Z" fill="#3A96FD"/>
<path d="M32.3609 29.745H28.3893C27.2944 29.745 26.4036 28.8542 26.4036 27.7592C26.4036 26.6643 27.2944 25.7734 28.3893 25.7734H32.3609C33.4558 25.7734 34.3466 26.6643 34.3466 27.7592C34.3466 28.8542 33.4558 29.745 32.3609 29.745ZM28.3893 27.0973C28.0243 27.0973 27.7274 27.3942 27.7274 27.7592C27.7274 28.1242 28.0243 28.4211 28.3893 28.4211H32.3609C32.7259 28.4211 33.0228 28.1242 33.0228 27.7592C33.0228 27.3942 32.7259 27.0973 32.3609 27.0973H28.3893ZM41.9588 33.0546C41.5932 33.0546 41.2968 32.7582 41.2968 32.3927V29.745H38.6491V32.3927C38.6491 32.7582 38.3527 33.0546 37.9872 33.0546C37.6217 33.0546 37.3253 32.7582 37.3253 32.3927V29.0831C37.3253 28.7175 37.6217 28.4211 37.9872 28.4211H41.9588C42.3243 28.4211 42.6207 28.7175 42.6207 29.0831V32.3927C42.6207 32.7582 42.3243 33.0546 41.9588 33.0546Z" fill="#3A96FD"/>
<path d="M41.9595 29.745H37.988C36.893 29.745 36.0022 28.8542 36.0022 27.7592C36.0022 26.6643 36.893 25.7734 37.988 25.7734H41.9595C43.0545 25.7734 43.9453 26.6643 43.9453 27.7592C43.9453 28.8542 43.0545 29.745 41.9595 29.745ZM37.988 27.0973C37.623 27.0973 37.326 27.3942 37.326 27.7592C37.326 28.1242 37.623 28.4211 37.988 28.4211H41.9595C42.3245 28.4211 42.6214 28.1242 42.6214 27.7592C42.6214 27.3942 42.3245 27.0973 41.9595 27.0973H37.988ZM51.5574 33.0546C51.1919 33.0546 50.8955 32.7582 50.8955 32.3927V29.745H48.2478V32.3927C48.2478 32.7582 47.9514 33.0546 47.5858 33.0546C47.2203 33.0546 46.9239 32.7582 46.9239 32.3927V29.0831C46.9239 28.7175 47.2203 28.4211 47.5858 28.4211H51.5574C51.9229 28.4211 52.2193 28.7175 52.2193 29.0831V32.3927C52.2193 32.7582 51.9229 33.0546 51.5574 33.0546Z" fill="#3A96FD"/>
<path d="M51.5562 29.745H47.5846C46.4897 29.745 45.5989 28.8542 45.5989 27.7592C45.5989 26.6643 46.4897 25.7734 47.5846 25.7734H51.5562C52.6511 25.7734 53.542 26.6643 53.542 27.7592C53.542 28.8542 52.6511 29.745 51.5562 29.745ZM47.5846 27.0973C47.2197 27.0973 46.9227 27.3942 46.9227 27.7592C46.9227 28.1242 47.2197 28.4211 47.5846 28.4211H51.5562C51.9212 28.4211 52.2181 28.1242 52.2181 27.7592C52.2181 27.3942 51.9212 27.0973 51.5562 27.0973H47.5846Z" fill="#3A96FD"/>
<path d="M54.5363 52.2518H25.4117C24.1343 52.2518 23.095 51.2125 23.095 49.9351C23.095 48.6576 24.1343 47.6183 25.4117 47.6183H54.5363C55.8138 47.6183 56.853 48.6576 56.853 49.9351C56.853 51.2125 55.8138 52.2518 54.5363 52.2518ZM25.4117 48.9422C24.8642 48.9422 24.4188 49.3876 24.4188 49.9351C24.4188 50.4825 24.8642 50.9279 25.4117 50.9279H54.5363C55.0838 50.9279 55.5292 50.4825 55.5292 49.9351C55.5292 49.3876 55.0838 48.9422 54.5363 48.9422H25.4117ZM54.5363 36.3656H25.4117C24.1343 36.3656 23.095 35.3264 23.095 34.0489C23.095 32.7715 24.1343 31.7322 25.4117 31.7322H54.5363C55.8138 31.7322 56.853 32.7715 56.853 34.0489C56.853 35.3264 55.8138 36.3656 54.5363 36.3656ZM25.4117 33.056C24.8642 33.056 24.4188 33.5014 24.4188 34.0489C24.4188 34.5964 24.8642 35.0418 25.4117 35.0418H54.5363C55.0838 35.0418 55.5292 34.5964 55.5292 34.0489C55.5292 33.5014 55.0838 33.056 54.5363 33.056H25.4117Z" fill="#023F85"/>
<path d="M54.2047 48.9414C53.8392 48.9414 53.5428 48.645 53.5428 48.2795V35.7029C53.5428 35.3374 53.8392 35.041 54.2047 35.041C54.5702 35.041 54.8666 35.3374 54.8666 35.7029V48.2795C54.8666 48.645 54.5702 48.9414 54.2047 48.9414ZM25.742 48.9414C25.3765 48.9414 25.0801 48.645 25.0801 48.2795V35.7029C25.0801 35.3374 25.3765 35.041 25.742 35.041C26.1075 35.041 26.4039 35.3374 26.4039 35.7029V48.2795C26.4039 48.645 26.1075 48.9414 25.742 48.9414Z" fill="#023F85"/>
</svg>
