<svg width="80" height="80" viewBox="0 0 80 80" fill="none" xmlns="http://www.w3.org/2000/svg">
<circle cx="40" cy="40" r="39.1321" stroke="#BBCEE3" stroke-width="1.73589"/>
<circle cx="40" cy="40" r="26.1272" fill="#BBCEE3"/>
<path d="M44.2669 51.5836H24.9393C24.5737 51.5836 24.2773 51.2872 24.2773 50.9217V27.0931C24.2773 26.7276 24.5737 26.4312 24.9393 26.4312H52.7393C53.1048 26.4312 53.4012 26.7276 53.4012 27.0931V43.282C53.4012 43.6475 53.1048 43.9439 52.7393 43.9439C52.3738 43.9439 52.0774 43.6475 52.0774 43.282V27.755H25.6012V50.2598H44.2669C44.6324 50.2598 44.9288 50.5562 44.9288 50.9217C44.9288 51.2872 44.6324 51.5836 44.2669 51.5836Z" fill="#023F85"/>
<path d="M30.8964 31.0642C29.4365 31.0642 28.2488 29.8765 28.2488 28.4166V25.769C28.2488 24.3091 29.4365 23.1213 30.8964 23.1213C32.3563 23.1213 33.544 24.3091 33.544 25.769V27.0928C33.544 27.4583 33.2476 27.7547 32.8821 27.7547C32.5166 27.7547 32.2202 27.4583 32.2202 27.0928V25.769C32.2202 25.039 31.6264 24.4452 30.8964 24.4452C30.1665 24.4452 29.5726 25.039 29.5726 25.769V28.4166C29.5726 29.1465 30.1665 29.7404 30.8964 29.7404C31.2619 29.7404 31.5583 30.0368 31.5583 30.4023C31.5583 30.7678 31.2619 31.0642 30.8964 31.0642ZM38.8393 31.0642C37.3794 31.0642 36.1917 29.8765 36.1917 28.4166V25.769C36.1917 24.3091 37.3794 23.1213 38.8393 23.1213C40.2992 23.1213 41.4869 24.3091 41.4869 25.769V27.0928C41.4869 27.4583 41.1905 27.7547 40.825 27.7547C40.4595 27.7547 40.1631 27.4583 40.1631 27.0928V25.769C40.1631 25.039 39.5692 24.4452 38.8393 24.4452C38.1093 24.4452 37.5155 25.039 37.5155 25.769V28.4166C37.5155 29.1465 38.1093 29.7404 38.8393 29.7404C39.2048 29.7404 39.5012 30.0368 39.5012 30.4023C39.5012 30.7678 39.2048 31.0642 38.8393 31.0642ZM46.7822 31.0642C45.3223 31.0642 44.1345 29.8765 44.1345 28.4166V25.769C44.1345 24.3091 45.3223 23.1213 46.7822 23.1213C48.2421 23.1213 49.4298 24.3091 49.4298 25.769V27.0928C49.4298 27.4583 49.1334 27.7547 48.7679 27.7547C48.4024 27.7547 48.106 27.4583 48.106 27.0928V25.769C48.106 25.039 47.5121 24.4452 46.7822 24.4452C46.0522 24.4452 45.4584 25.039 45.4584 25.769V28.4166C45.4584 29.1465 46.0522 29.7404 46.7822 29.7404C47.1477 29.7404 47.4441 30.0368 47.4441 30.4023C47.4441 30.7678 47.1477 31.0642 46.7822 31.0642ZM52.7393 33.7118H24.9393C24.5737 33.7118 24.2773 33.4154 24.2773 33.0499C24.2773 32.6844 24.5737 32.388 24.9393 32.388H52.7393C53.1048 32.388 53.4012 32.6844 53.4012 33.0499C53.4012 33.4154 53.1048 33.7118 52.7393 33.7118ZM32.7875 40.9928H28.2488C27.8833 40.9928 27.5869 40.6964 27.5869 40.3309V36.3595C27.5869 35.994 27.8833 35.6976 28.2488 35.6976H32.7875C33.153 35.6976 33.4494 35.994 33.4494 36.3595V40.3309C33.4494 40.6964 33.1531 40.9928 32.7875 40.9928ZM28.9107 39.669H32.1256V37.0214H28.9107V39.669ZM41.1087 40.9928H36.5699C36.2044 40.9928 35.908 40.6964 35.908 40.3309V36.3595C35.908 35.994 36.2044 35.6976 36.5699 35.6976H41.1087C41.4742 35.6976 41.7706 35.994 41.7706 36.3595V40.3309C41.7706 40.6964 41.4743 40.9928 41.1087 40.9928ZM37.2318 39.669H40.4468V37.0214H37.2318V39.669ZM49.4298 40.9928H44.891C44.5255 40.9928 44.2291 40.6964 44.2291 40.3309V36.3595C44.2291 35.994 44.5255 35.6976 44.891 35.6976H49.4298C49.7953 35.6976 50.0917 35.994 50.0917 36.3595V40.3309C50.0917 40.6964 49.7953 40.9928 49.4298 40.9928ZM45.5529 39.669H48.7679V37.0214H45.5529V39.669ZM32.7875 48.2738H28.2488C27.8833 48.2738 27.5869 47.9774 27.5869 47.6119V43.6404C27.5869 43.2749 27.8833 42.9785 28.2488 42.9785H32.7875C33.153 42.9785 33.4494 43.2749 33.4494 43.6404V47.6119C33.4494 47.9774 33.1531 48.2738 32.7875 48.2738ZM28.9107 46.95H32.1256V44.3023H28.9107V46.95ZM41.1087 48.2738H36.5699C36.2044 48.2738 35.908 47.9774 35.908 47.6119V43.6404C35.908 43.2749 36.2044 42.9785 36.5699 42.9785H41.1087C41.4742 42.9785 41.7706 43.2749 41.7706 43.6404V47.6119C41.7706 47.9774 41.4743 48.2738 41.1087 48.2738ZM37.2318 46.95H40.4468V44.3023H37.2318V46.95Z" fill="#023F85"/>
<path d="M50.7536 56.8788C46.7389 56.8788 43.4727 53.6126 43.4727 49.5979C43.4727 45.5831 46.7389 42.3169 50.7536 42.3169C54.7684 42.3169 58.0346 45.5831 58.0346 49.5979C58.0346 53.6126 54.7684 56.8788 50.7536 56.8788ZM50.7536 43.6407C47.4689 43.6407 44.7965 46.3131 44.7965 49.5979C44.7965 52.8826 47.4689 55.555 50.7536 55.555C54.0384 55.555 56.7108 52.8826 56.7108 49.5979C56.7108 46.3131 54.0384 43.6407 50.7536 43.6407Z" fill="#3A96FD"/>
<path fill-rule="evenodd" clip-rule="evenodd" d="M49.2313 47.612V46.8177L52.2761 46.8177V47.612H49.2313ZM48.8341 48.8752C48.2971 48.7065 47.9075 48.2048 47.9075 47.612V46.8177C47.9075 46.0866 48.5002 45.4939 49.2313 45.4939H52.2761C53.0072 45.4939 53.5999 46.0866 53.5999 46.8177V47.612C53.5999 48.2048 53.2103 48.7065 52.6732 48.8752V52.3777C52.6732 53.4379 51.8138 54.2973 50.7537 54.2973C49.6935 54.2973 48.8341 53.4379 48.8341 52.3777V48.8752ZM50.1579 48.9358H51.3494V52.3777C51.3494 52.7067 51.0827 52.9735 50.7537 52.9735C50.4247 52.9735 50.1579 52.7067 50.1579 52.3777V48.9358Z" fill="#3A96FD"/>
</svg>
